<?xml version="1.0" standalone="no"?>
<!DOCTYPE svg PUBLIC "-//W3C//DTD SVG 20010904//EN"
 "http://www.w3.org/TR/2001/REC-SVG-20010904/DTD/svg10.dtd">
<svg version="1.0" xmlns="http://www.w3.org/2000/svg"
 width="534.000000pt" height="551.000000pt" viewBox="0 0 534.000000 551.000000"
 preserveAspectRatio="xMidYMid meet">

<g transform="translate(0.000000,551.000000) scale(0.100000,-0.100000)"
fill="#000000" stroke="none">
<path d="M3107 5181 c-114 -126 -219 -243 -233 -260 l-26 -31 33 -56 c46 -76
180 -201 322 -303 112 -79 119 -83 143 -71 50 27 162 130 256 236 53 60 124
136 157 169 34 33 61 63 61 66 0 4 -91 92 -202 195 -112 103 -226 209 -254
236 l-50 48 -207 -229z"/>
<path d="M2340 5001 c-39 -73 23 -374 116 -566 73 -150 266 -368 418 -474 255
-176 541 -226 922 -161 298 51 473 121 739 296 122 80 211 159 220 197 14 53
-57 165 -231 369 -49 56 -99 116 -111 133 -21 30 -21 30 -56 13 -19 -9 -90
-59 -158 -111 -292 -222 -498 -318 -746 -349 -165 -20 -378 18 -531 96 -174
88 -429 336 -527 511 -20 36 -38 65 -41 65 -2 0 -8 -9 -14 -19z"/>
<path d="M1745 4343 c-294 -25 -621 -128 -860 -271 -49 -29 -234 -162 -269
-193 -5 -4 73 -145 174 -313 l182 -305 128 64 c343 172 559 250 761 276 162
21 292 -22 390 -129 72 -79 109 -147 109 -202 0 -95 -132 -255 -262 -319 -153
-75 -354 -96 -652 -67 -93 9 -171 15 -173 13 -6 -7 26 -148 58 -250 54 -177
157 -382 253 -507 l34 -44 219 -1 c239 -1 271 -7 385 -67 151 -80 248 -273
248 -492 0 -424 -381 -677 -947 -628 -386 34 -685 166 -849 376 -155 197 -281
475 -395 866 -65 222 -112 341 -130 323 -41 -41 -37 -345 7 -658 56 -393 232
-806 464 -1090 90 -110 258 -265 366 -338 110 -73 294 -165 394 -196 134 -41
179 -46 420 -46 319 0 418 23 592 138 259 170 447 418 522 687 64 228 60 600
-9 819 -13 42 -49 131 -80 199 -30 68 -55 126 -55 128 0 2 98 4 218 4 244 0
323 9 400 46 107 52 275 247 418 486 264 441 407 561 649 544 204 -14 280 -62
351 -221 106 -241 126 -661 43 -915 -118 -364 -488 -655 -859 -677 -216 -12
-386 64 -521 234 -90 114 -149 244 -149 332 0 30 -2 33 -14 21 -51 -54 -81
-249 -66 -423 46 -525 280 -870 650 -956 226 -52 479 -27 665 66 425 214 675
767 675 1493 0 272 -28 460 -100 682 -106 322 -299 592 -530 740 -164 105
-239 123 -489 116 -188 -6 -278 -23 -388 -73 -216 -99 -353 -264 -588 -705
-147 -278 -254 -412 -378 -478 -46 -24 -63 -27 -152 -27 -70 0 -116 5 -154 18
-62 21 -252 105 -264 117 -5 4 29 32 76 63 103 67 160 125 238 241 103 152
181 327 214 480 26 115 17 291 -20 406 -93 290 -282 501 -515 574 -119 38
-282 52 -435 39z"/>
</g>
</svg>
